<?xml version="1.0" standalone="no"?>
<!DOCTYPE svg PUBLIC "-//W3C//DTD SVG 20010904//EN"
 "http://www.w3.org/TR/2001/REC-SVG-20010904/DTD/svg10.dtd">
<svg version="1.0" xmlns="http://www.w3.org/2000/svg"
 width="64.000000pt" height="64.000000pt" viewBox="0 0 64.000000 64.000000"
 preserveAspectRatio="xMidYMid meet">

<g transform="translate(0.000000,64.000000) scale(0.100000,-0.100000)"
fill="#000000" stroke="none">
<path d="M127 450 l-78 -130 78 -130 78 -130 59 0 c69 0 71 -9 -19 140 -36 60
-65 113 -65 120 0 7 29 60 65 120 90 149 88 140 19 140 l-59 0 -78 -130z m170
103 c-2 -5 -34 -59 -71 -120 l-67 -113 67 -112 c37 -62 69 -116 71 -120 2 -5
-17 -8 -44 -8 l-48 1 -67 114 c-38 62 -68 119 -68 125 0 6 30 63 68 125 l67
114 48 1 c27 0 46 -3 44 -7z"/>
<path d="M327 450 l-78 -130 78 -130 78 -130 59 0 c69 0 71 -9 -19 140 -36 60
-65 113 -65 120 0 7 29 60 65 120 90 149 88 140 19 140 l-59 0 -78 -130z m170
103 c-2 -5 -34 -59 -71 -120 l-67 -113 67 -112 c37 -62 69 -116 71 -120 2 -5
-17 -8 -44 -8 l-48 1 -67 114 c-38 62 -68 119 -68 125 0 6 30 63 68 125 l67
114 48 1 c27 0 46 -3 44 -7z"/>
<path d="M577 553 c-2 -4 -17 -30 -33 -57 -15 -27 -23 -47 -17 -43 15 9 66 97
60 103 -3 3 -7 2 -10 -3z"/>
<path d="M490 405 c-7 -9 -10 -18 -7 -21 3 -3 10 4 17 15 13 25 8 27 -10 6z"/>
<path d="M445 320 c-3 -6 1 -7 9 -4 18 7 21 14 7 14 -6 0 -13 -4 -16 -10z"/>
<path d="M470 280 c-13 -8 -12 -10 3 -10 9 0 17 5 17 10 0 12 -1 12 -20 0z"/>
<path d="M490 229 c0 -5 5 -7 10 -4 6 3 10 8 10 11 0 2 -4 4 -10 4 -5 0 -10
-5 -10 -11z"/>
<path d="M515 190 c-3 -5 -2 -10 4 -10 5 0 13 5 16 10 3 6 2 10 -4 10 -5 0
-13 -4 -16 -10z"/>
<path d="M545 150 c-3 -5 -1 -10 4 -10 6 0 11 5 11 10 0 6 -2 10 -4 10 -3 0
-8 -4 -11 -10z"/>
<path d="M565 100 c-3 -6 1 -7 9 -4 18 7 21 14 7 14 -6 0 -13 -4 -16 -10z"/>
</g>
</svg>
