<?xml version="1.0" standalone="no"?>
<!DOCTYPE svg PUBLIC "-//W3C//DTD SVG 20010904//EN"
 "http://www.w3.org/TR/2001/REC-SVG-20010904/DTD/svg10.dtd">
<svg version="1.0" xmlns="http://www.w3.org/2000/svg"
 width="64.000000pt" height="64.000000pt" viewBox="0 0 64.000000 64.000000"
 preserveAspectRatio="xMidYMid meet">

<g transform="translate(0.000000,64.000000) scale(0.100000,-0.100000)"
fill="#000000" stroke="none">
<path d="M257 609 c-214 -33 -305 -304 -158 -472 79 -90 224 -117 335 -63 102
50 158 140 158 256 0 182 -150 307 -335 279z m163 -30 c171 -77 215 -302 87
-438 -100 -105 -281 -109 -385 -8 -36 35 -40 47 -14 47 10 0 23 5 30 12 15 15
15 61 0 76 -14 14 -64 16 -72 3 -3 -5 8 -8 25 -7 38 1 60 -25 43 -51 -19 -31
-57 -22 -76 17 -42 84 -12 226 63 297 77 73 205 95 299 52z"/>
<path d="M262 550 c-18 -4 -36 -11 -40 -15 -4 -5 4 -5 18 -2 14 4 45 7 70 7
33 0 41 3 30 10 -17 11 -32 11 -78 0z"/>
<path d="M380 536 c0 -2 7 -7 16 -10 8 -3 12 -2 9 4 -6 10 -25 14 -25 6z"/>
<path d="M182 438 c-15 -15 -15 -51 0 -66 26 -26 79 -7 77 28 0 10 -4 7 -11
-8 -8 -17 -19 -22 -37 -20 -32 4 -39 32 -15 59 18 20 6 27 -14 7z"/>
<path d="M390 410 c0 -5 5 -10 10 -10 6 0 10 5 10 10 0 6 -4 10 -10 10 -5 0
-10 -4 -10 -10z"/>
<path d="M336 294 c-9 -8 -16 -19 -16 -24 0 -11 29 -40 40 -40 11 0 40 29 40
40 0 11 -29 40 -40 40 -5 0 -16 -7 -24 -16z m44 -24 c0 -13 -7 -20 -20 -20
-13 0 -20 7 -20 20 0 13 7 20 20 20 13 0 20 -7 20 -20z"/>
<path d="M470 300 c0 -5 5 -10 10 -10 6 0 10 5 10 10 0 6 -4 10 -10 10 -5 0
-10 -4 -10 -10z"/>
<path d="M205 159 c-4 -6 -5 -12 -2 -15 2 -3 7 2 10 11 7 17 1 20 -8 4z"/>
<path d="M406 157 c3 -10 9 -15 12 -12 3 3 0 11 -7 18 -10 9 -11 8 -5 -6z"/>
<path d="M251 134 c0 -11 3 -14 6 -6 3 7 2 16 -1 19 -3 4 -6 -2 -5 -13z"/>
<path d="M361 134 c0 -11 3 -14 6 -6 3 7 2 16 -1 19 -3 4 -6 -2 -5 -13z"/>
<path d="M300 130 c0 -5 5 -10 10 -10 6 0 10 5 10 10 0 6 -4 10 -10 10 -5 0
-10 -4 -10 -10z"/>
</g>
</svg>
